<?xml version="1.0" encoding="utf-8"?>
<!-- Generator: Adobe Illustrator 26.2.1, SVG Export Plug-In . SVG Version: 6.00 Build 0)  -->
<svg version="1.1" id="Layer_1" xmlns="http://www.w3.org/2000/svg" xmlns:xlink="http://www.w3.org/1999/xlink" x="0px" y="0px"
	 viewBox="0 0 1250.2 469.2" style="enable-background:new 0 0 1250.2 469.2;" xml:space="preserve">
<style type="text/css">
	.st0{fill:#FFFFFF;}
	.st1{fill:#FF6333;}
</style>
<g>
	<g>
		<path class="st0" d="M702,262.6h-82.9c3,14.9,14.4,22.9,30.5,22.9c11.5,0,22.7-5,28.9-13.8l17.9,13.5
			c-9.9,15.6-28.9,24.3-48.3,24.3c-31.8,0-56.1-22.9-56.1-56.4c0-34.2,25.4-56.2,56.1-56.2c30.5,0,54.5,21.8,54.5,55.2
			C702.4,255.3,702.2,258.7,702,262.6z M676.1,244c-1.6-14.7-13.1-23.4-27.9-23.4c-14.2,0-25.9,7.1-29.1,23.4H676.1z"/>
		<path class="st0" d="M826.5,246.8v60h-26.6v-58.2c0-17.2-10.3-26.4-22.2-26.4c-12.1,0-27.2,7.1-27.2,27.7v56.8h-26.6v-107h26.6v17
			c5.5-13.5,22.2-19.7,33.2-19.7C811.1,197.1,826.5,215.6,826.5,246.8z"/>
		<path class="st0" d="M933.4,199.8H960v107h-26.6v-16.7c-7.1,11.7-21.3,19.5-36.6,19.5c-28.6,0-51.5-23.2-51.5-56.4
			c0-32.3,22-56.2,52.2-56.2c14.7,0,28.9,6.4,36,17.7v-14.9H933.4z M933,253.2c0-18.3-15.1-31.4-30.9-31.4
			c-17.2,0-30.2,14.2-30.2,31.4s13.1,31.6,30.5,31.6C918.8,284.8,933,271.1,933,253.2z"/>
		<path class="st0" d="M1097.9,199.8v107h-26.6v-85.9h-45.1v85.9h-26.6v-85.9h-20.4v-21.1h20.4v-1.7c0-30.7,14.7-49.3,44.4-49.3h6.9
			v24.8h-3.9c-16.3,0-21.1,9.4-20.8,21.3v4.9L1097.9,199.8L1097.9,199.8z M1067.2,165.2c0-9.4,8-16.3,17.4-16.3s17.2,6.9,17.2,16.3
			c0,9.2-7.8,16.3-17.2,16.3C1075.2,181.5,1067.2,174.4,1067.2,165.2z"/>
		<path class="st0" d="M571.4,156.4c-10.9,38.2-28.4,73.8-51.1,105.6c-22.7-31.8-40.2-67.4-51.1-105.6H440
			c12.4,46.9,33.9,90.4,62.5,128.5c5.7,7.5,11.6,14.8,17.8,21.9c6.2-7.1,12.1-14.4,17.8-21.9c28.6-38.1,50.1-81.6,62.5-128.5H571.4z
			"/>
	</g>
	<g>
		<path class="st1" d="M295.4,128.6c-0.6,1.6-6.7,19.6-10,27h52c-18.5,50.1-44.9,95.9-78.8,136.1L247,305.4l-11.6-13.7
			c-33.9-40.2-60.3-86-78.8-136.1H206c-3.3-7.4-9.4-25.4-10-27h-82.2c27.2,73.6,66,140.9,115.8,199.9l17,20.1l17-20.1
			c49.8-59,88.6-126.3,115.8-199.9H295.4z"/>
	</g>
	<g>
		<path class="st1" d="M281.8,173.2c-9,22.3-20.7,43.2-35.2,62c-14.5-18.8-26.2-39.7-35.2-62h-27.3c12.8,34.6,31.1,66.3,54.5,94
			l8,9.5l8-9.5c23.4-27.8,41.7-59.4,54.5-94L281.8,173.2L281.8,173.2z"/>
	</g>
	<g>
		<g>
			<path class="st0" d="M1127.1,309.1c-1.3,0-2.6-0.2-3.7-0.7s-2.1-1.1-3-2c-0.8-0.8-1.5-1.8-2-3c-0.5-1.1-0.7-2.4-0.7-3.7
				c0-1.3,0.2-2.6,0.7-3.7s1.1-2.1,2-3s1.8-1.5,3-2c1.1-0.5,2.4-0.7,3.7-0.7c1.3,0,2.6,0.2,3.7,0.7s2.1,1.1,3,2c0.8,0.8,1.5,1.8,2,3
				c0.5,1.1,0.7,2.4,0.7,3.7c0,1.3-0.2,2.6-0.7,3.7s-1.1,2.1-2,3c-0.8,0.8-1.8,1.5-3,2C1129.7,308.8,1128.5,309.1,1127.1,309.1z
				 M1127.1,307.8c1.2,0,2.2-0.2,3.2-0.6s1.8-1,2.5-1.7s1.3-1.6,1.7-2.6c0.4-1,0.6-2,0.6-3.2s-0.2-2.2-0.6-3.2s-1-1.8-1.7-2.6
				c-0.7-0.7-1.6-1.3-2.5-1.7c-1-0.4-2-0.6-3.2-0.6s-2.2,0.2-3.2,0.6s-1.8,1-2.6,1.7c-0.7,0.7-1.3,1.6-1.7,2.6
				c-0.4,1-0.6,2.1-0.6,3.2c0,1.2,0.2,2.2,0.6,3.2s1,1.8,1.7,2.6c0.7,0.7,1.6,1.3,2.6,1.7S1126,307.8,1127.1,307.8z M1123.3,305.2
				v-10.9h4.6c1.2,0,2.1,0.3,2.7,0.9s1,1.3,1,2.3s-0.3,1.8-1,2.3c-0.6,0.5-1.5,0.8-2.7,0.8l0.4-0.3c0.5,0,1,0.1,1.4,0.4
				c0.4,0.2,0.6,0.7,0.8,1.4l1.1,3.2h-2.1l-1.1-3.3c-0.2-0.4-0.4-0.7-0.7-0.8s-0.6-0.2-1-0.2h-1.8l0.4-0.3v4.6h-2V305.2z
				 M1125.3,299.3h2.2c0.7,0,1.2-0.1,1.5-0.4s0.5-0.7,0.5-1.3c0-0.6-0.2-1-0.5-1.3s-0.8-0.4-1.5-0.4h-2.2V299.3z"/>
		</g>
	</g>
</g>
</svg>
